<?xml version="1.0" encoding="UTF-8" standalone="no"?>
<svg
   xmlns:svg="http://www.w3.org/2000/svg"
   xmlns="http://www.w3.org/2000/svg"
   height="500"
   width="220">
  <g id="layer" transform="translate(-140,-552.36275)" style="display:inline">
    <g transform="matrix(6.6715415,0,0,6.6715415,2909.5046,-1711.1279)">
      <path
        id="king"
        d="m -412.80371,414.09091 c 0,-0.0715 -0.0667,-0.23197 -0.14817,-0.35663 -0.12887,-0.19714 -0.14492,-0.40896 -0.12326,-1.62686 0.0282,-1.584 0.0832,-1.7474 0.71036,-2.10832 0.18211,-0.10481 0.37253,-0.28148 0.42316,-0.3926 0.0814,-0.17871 0.0503,-0.24903 -0.26918,-0.60899 -0.41747,-0.4703 -0.59368,-0.83693 -0.59105,-1.22974 0.002,-0.31357 0.2372,-0.87045 0.47478,-1.12462 0.0871,-0.0932 0.27118,-0.32177 0.40907,-0.508 0.1379,-0.18623 0.5189,-0.64713 0.84667,-1.02423 1.95208,-2.24585 3.5338,-4.25371 3.74034,-4.74804 0.16236,-0.38857 0.15952,-1.06269 -0.008,-1.93233 -0.14876,-0.77167 -0.16718,-1.33978 -0.0505,-1.55778 0.044,-0.0823 0.38129,-0.38265 0.74944,-0.66745 1.23243,-0.9534 1.38614,-1.22259 2.08939,-3.6591 1.03901,-3.59984 1.51411,-6.74956 1.73686,-11.51467 0.0915,-1.95679 0.0966,-4.80248 0.0113,-6.30594 -0.0621,-1.09515 0.12949,-0.96044 -1.74606,-1.22758 -1.5018,-0.2139 -2.02023,-0.33898 -3.06961,-0.74061 -0.8519,-0.32605 -1.54473,-0.85833 -1.54473,-1.18677 0,-0.40342 0.79014,-0.9258 2.11667,-1.39938 0.60953,-0.21761 0.69324,-0.3565 0.47194,-0.78306 -0.11962,-0.23057 -0.11597,-0.25983 0.0551,-0.44196 0.31057,-0.33058 1.00001,-0.61356 1.63605,-0.67151 0.3237,-0.0295 0.61654,-0.0955 0.65075,-0.14657 0.0951,-0.14209 0.0765,-1.56384 -0.0229,-1.74952 -0.0482,-0.0901 -0.14053,-0.16376 -0.20517,-0.16376 -0.21579,0 -0.63432,-0.43202 -0.73094,-0.7545 -0.1123,-0.37484 0.0333,-0.74486 0.39294,-0.99855 0.61571,-0.43431 0.59508,-0.40333 0.43317,-0.65043 -0.0807,-0.12321 -0.29392,-0.59485 -0.47376,-1.0481 -0.17984,-0.45325 -0.50472,-1.24319 -0.72196,-1.75542 -0.21724,-0.51224 -0.4931,-1.17899 -0.61302,-1.48167 -0.11992,-0.30268 -0.34988,-0.83608 -0.51102,-1.18533 -0.34887,-0.75611 -0.88541,-2.16891 -1.03643,-2.72907 -0.24309,-0.90168 0.007,-1.63639 0.62665,-1.84089 0.38586,-0.12734 1.80765,-0.25134 2.91084,-0.25386 l 0.95731,-0.002 0.28828,-0.63258 c 0.30754,-0.67486 0.29072,-0.66292 1.07792,-0.76499 0.44386,-0.0575 0.4777,-0.1204 0.24336,-0.45203 -0.37255,-0.52723 -0.3012,-0.97818 0.27348,-1.7283 0.21806,-0.28464 0.30866,-0.48893 0.30866,-0.69597 v -0.29307 l -1.0795,-0.0237 -1.0795,-0.0237 0.004,-2.159 0.004,-2.159 h 1.33272 c 1.05513,0 1.34813,-0.0248 1.40665,-0.11932 0.0865,-0.13963 0.0331,-0.32611 -0.15612,-0.54557 -0.18901,-0.21919 -0.35213,-0.98012 -0.2464,-1.14943 0.11171,-0.0837 2.10195,-1.76921 2.72284,-1.45026 0.84311,0.4331 1.71314,0.89281 2.42592,1.5365 0,0.0475 -0.11592,0.35879 -0.25761,0.69175 -0.35342,0.83052 -0.32599,0.9377 0.25761,1.00679 0.25612,0.0303 0.87524,0.0589 1.37584,0.0635 l 0.91016,0.008 0.005,0.23283 c 0.0301,1.53851 -0.0302,3.88701 -0.10191,3.97346 -0.0601,0.0724 -0.41889,0.11424 -1.1174,0.13033 -1.00991,0.0233 -1.02943,0.0274 -1.05727,0.22419 -0.0176,0.12443 0.0834,0.36533 0.26614,0.635 0.61217,0.90322 0.69435,1.25587 0.39722,1.70452 -0.28586,0.43165 -0.19348,0.635 0.2885,0.635 0.25621,0 0.51891,0.3025 0.65073,0.74933 0.0598,0.20258 0.18722,0.41803 0.28322,0.47877 0.11405,0.0722 0.65879,0.13016 1.57155,0.16734 1.5142,0.0617 1.92293,0.12228 2.2442,0.33279 0.75089,0.492 0.67083,1.37176 -0.33968,3.73277 -0.21924,0.51223 -0.52992,1.25518 -0.69039,1.651 -0.41814,1.03133 -1.26211,3.04747 -1.64806,3.937 -0.18184,0.4191 -0.33004,0.80257 -0.32934,0.85215 6.8e-4,0.0496 0.13488,0.15387 0.29819,0.23174 0.33733,0.16087 0.63363,0.58815 0.6341,0.91442 4.2e-4,0.29224 -0.32291,0.75978 -0.63659,0.92051 -0.13865,0.0711 -0.28078,0.16728 -0.31583,0.21385 -0.0351,0.0466 -0.0541,0.48471 -0.0423,0.97366 l 0.0214,0.889 0.254,0.0217 c 0.7789,0.0665 1.29571,0.21773 1.7145,0.50179 0.24447,0.16582 0.4445,0.34814 0.4445,0.40517 0,0.057 -0.0607,0.22529 -0.13482,0.37393 -0.0741,0.14863 -0.11664,0.31759 -0.0944,0.37546 0.0222,0.0579 0.26385,0.17534 0.53699,0.26103 0.71911,0.22563 1.54488,0.64552 1.86751,0.94961 0.53196,0.50138 0.3066,0.95199 -0.7197,1.43903 -1.06747,0.50658 -2.75953,0.91729 -4.52377,1.09804 -0.30528,0.0313 -0.6066,0.089 -0.66959,0.1282 -0.16375,0.102 -0.12512,6.15683 0.0551,8.62773 0.12434,1.70518 0.44126,4.47911 0.64327,5.63033 0.47864,2.72776 1.39779,6.08565 1.9057,6.96204 0.18616,0.32121 0.7527,0.85765 1.67919,1.58996 0.28069,0.22187 0.32752,0.31006 0.36351,0.68466 0.0239,0.2489 -0.0231,0.74782 -0.11172,1.18467 -0.2055,1.0134 -0.1984,1.59929 0.0245,2.02467 0.17396,0.33191 1.31656,1.83958 1.94884,2.5715 0.17588,0.20358 0.64362,0.76047 1.03944,1.23751 0.39582,0.47705 1.03861,1.24392 1.42843,1.70417 0.70228,0.82918 1.10915,1.51305 1.11074,1.86697 10e-4,0.31172 -0.30413,0.90295 -0.62478,1.20896 -0.38504,0.36748 -0.39367,0.61005 -0.0306,0.85908 0.15134,0.1038 0.37994,0.28497 0.508,0.40261 l 0.23284,0.21388 v 1.5095 c 0,0.96607 -0.0379,1.63093 -0.10529,1.84682 l -0.10527,0.33734 h -14.20339 c -12.71346,0 -14.20338,-0.0136 -14.20338,-0.12998 z"
        style="fill:#008ac9;stroke-width:0.08466667" />
    </g>
  </g>
</svg>
